<?xml version="1.0" encoding="UTF-8"?>
<svg id="Layer_1" data-name="Layer 1" xmlns="http://www.w3.org/2000/svg" viewBox="0 0 400 160">
  <defs>
    <style>
      .cls-1 {
        fill: #52c3d5;
      }

      .cls-1, .cls-2 {
        stroke-width: 0px;
      }

      .cls-2, .cls-3 {
        fill: #fff;
      }

      .cls-3 {
        font-family: BebasNeue-Regular, 'Bebas Neue';
        font-size: 74px;
      }
    </style>
  </defs>
  <g>
    <path class="cls-1" d="M19.36,63.4c15.76-33.45,69.96-34.52,82.78.02-18.77-36.33-78.05-24.05-75.87,16.32,12.55-26.04,53.58-30.15,66.82-3.88-8.27-12.81-22.56-16.5-35.23-13.6-15.41,3.49-28.42,16.7-25.35,35.06,2.17-4.33,4.93-7.9,8.05-10.72,5.38-4.84,11.89-7.49,18.43-8.08.32-.04.65-.07.98-.09,2.42-.15,4.83-.01,7.19.38.71.13,1.41.27,2.11.45.54.12,1.07.26,1.6.43,4.5,1.36,8.65,3.76,12.03,7.13-6.28-5.05-16.58-6.08-25.49-2.92-1.32.48-2.62,1.04-3.87,1.69-3.63,1.92-6.86,4.63-9.24,8.15-.02,0,0,.02,0,.02-.71,1.35-1.25,2.74-1.66,4.15-1.14,3.91-1.13,7.97-.03,11.69.2.66.43,1.33.7,1.97.23.54.48,1.08.76,1.6,0,.02.01.03.03.05,1.68,3.21,4.31,5.98,7.82,7.95-.06.14-.13.29-.19.43-.41.94-.84,1.89-1.25,2.85-.02.02-.03.05-.04.07-1.71-.36-6.48-2-8.08-2.75-.02,0-.05,0-.07-.02-.11-.05-.2-.08-.26-.12-6.79-3.73-13.34-8.16-18.9-13.49-.57-.61-1.11-1.24-1.65-1.91-3.84-4.66-6.96-10.05-9.14-16.07C2.05,61.81,16.71,30.5,45.07,20.23c5.29-1.92,10.69-2.97,16.03-3.22.03,0,.05,0,.08,0,.03-.01.07-.01.11,0,2.62,0,5.28.23,7.97.68,19.21,2.49,37.49,16.11,42.84,34.93C94.37,8.32,22.91,13.6,19.36,63.4Z"/>
    <path class="cls-2" d="M61.18,126.83c-.29.14-.7.23-1.24.28h-.13c-1.81-.29-3.56-.61-5.23-.97-6.37-1.36-11.74-3.22-16.35-5.51-.01,0-.02-.01-.04-.01-11.33-5.98-20.29-15.81-25.14-27.76-.4-.79-.77-1.58-1.12-2.39.06,0,.13.01.22.04,2.52.47,8.31,4.92,9.48,5.74,2.4,1.78,4.84,3.55,7.32,5.35.64.46,1.27.91,1.91,1.37,1.39,1.01,2.8,2.02,4.22,3.02.16.12.32.24.49.36,1.25.9,2.52,1.79,3.8,2.69,2.72,1.92,5.5,3.83,8.25,5.68,1.39.94,2.77,1.85,4.14,2.74,1.68,1.18,12.72,7.91,9.41,9.39Z"/>
    <path class="cls-2" d="M59.45,92.07h0s-8.26-11.51-8.26-11.51l4.49-3.57,8.18,6.22s.58,1.27.88,1.04c.31-.24.04-.69.04-.69,1.27-.58,2.75,1.74,2.75,1.74-.48-3.69-3.91-4.27-3.91-4.27l-5.99-6.45.35-.92s2.19-.23,4.84-4.49c1.25-2.02.67-3.55-.29-4.61-1.43-1.57-3.81-1.87-5.66-.82-3.13,1.79-2.46,5.43-2.46,5.43l-.35.92s-.35.92-3.11-.11-9.21,4.96-9.21,4.96c0,0-11.06,4.27-10.15,10.26.91,5.99,8.66,13.36,8.66,13.36,0,0,.58,1.27-1.27.58s-7.83,1.27-7.83,1.27c0,0-4.32,1.05-4.24,1.74l-.83.57s3.34,2.3,6.11,3.34.69-1.84.69-1.84l-1.84-.69,10.52.11c-1.26,2.43-2.32,4.57-2.92,4.84-1.27.58-2.3,3.34-2.3,3.34,0,0,9.22,3.45,10.48,2.88s-4.42-4.99-4.42-4.99l1.18-3.14s9.92-12.49,9.34-13.76-10.6-8.18-10.6-8.18l5.54-2.5,1.02,1.81,3.92,3.57,4.88,4.61,1.85,1.54c.68.57.78,1.06,1.23,1.82l2.34,1.52c-.12-3.48-2-4.87-3.65-4.89ZM46.18,95.72c-.1.28-1.04,1.62-1.55,2.35h0l-.81-3.46,2.36,1.11Z"/>
  </g>
  <text class="cls-3" transform="translate(53 145.8)"><tspan x="0" y="0">SOUND BORDER</tspan></text>
</svg>