<?xml version="1.0" encoding="UTF-8"?>
<svg id="Layer_1" data-name="Layer 1" xmlns="http://www.w3.org/2000/svg" viewBox="0 0 462 128">
  <defs>
    <style>
      .cls-1 {
        fill: none;
        stroke: #fff;
        stroke-miterlimit: 10;
        stroke-width: 3px;
      }

      .cls-2 {
        fill: #52c3d5;
      }

      .cls-2, .cls-3 {
        stroke-width: 0px;
      }

      .cls-3, .cls-4 {
        fill: #fff;
      }

      .cls-4 {
        font-family: BebasNeue-Regular, 'Bebas Neue';
        font-size: 74px;
      }
    </style>
  </defs>
  <g>
    <path class="cls-2" d="M28.19,53.53c10.61-22.52,47.1-23.24,55.73.02-12.64-24.46-52.55-16.19-51.09,10.99,8.45-17.53,36.08-20.3,44.99-2.62-5.57-8.62-15.19-11.11-23.72-9.16-10.37,2.35-19.13,11.25-17.07,23.6,1.46-2.92,3.32-5.32,5.42-7.22,3.63-3.26,8.01-5.04,12.41-5.44.21-.03.44-.05.66-.06,1.63-.1,3.25,0,4.84.26.48.08.95.18,1.42.3.37.08.72.18,1.08.29,3.03.91,5.82,2.53,8.1,4.8-4.23-3.4-11.16-4.1-17.16-1.97-.89.32-1.77.7-2.6,1.14-2.45,1.29-4.62,3.12-6.22,5.49-.02,0,0,.01,0,.01-.48.91-.84,1.84-1.12,2.79-.77,2.63-.76,5.36-.02,7.87.13.44.29.89.47,1.32.16.36.32.73.51,1.08,0,.02,0,.02.02.04,1.13,2.16,2.9,4.03,5.27,5.35-.04.09-.08.19-.13.29-.28.63-.56,1.27-.84,1.92-.01.01-.02.03-.03.04-1.15-.24-4.37-1.35-5.44-1.85-.02,0-.04,0-.05-.02-.07-.03-.13-.06-.18-.08-4.57-2.51-8.98-5.5-12.73-9.08-.38-.41-.75-.84-1.11-1.28-2.59-3.14-4.69-6.77-6.15-10.82-6.92-19.09,2.95-40.18,22.05-47.09,3.56-1.29,7.2-2,10.79-2.17.02,0,.03,0,.05,0,.02,0,.05,0,.08,0,1.76,0,3.55.16,5.36.45,12.93,1.68,25.24,10.85,28.85,23.52-11.94-29.82-60.05-26.26-62.44,7.27Z"/>
    <path class="cls-3" d="M56.34,96.23c-.19.1-.47.15-.83.19h-.09c-1.22-.19-2.4-.41-3.52-.65-4.29-.91-7.9-2.17-11.01-3.71,0,0-.02,0-.02,0-7.63-4.02-13.66-10.64-16.93-18.69-.27-.53-.52-1.07-.75-1.61.04,0,.09,0,.15.02,1.7.32,5.59,3.31,6.38,3.86,1.62,1.2,3.26,2.39,4.93,3.6.43.31.86.61,1.28.92.94.68,1.88,1.36,2.84,2.04.11.08.22.16.33.24.84.61,1.7,1.2,2.56,1.81,1.83,1.29,3.7,2.58,5.55,3.82.94.63,1.87,1.24,2.79,1.84,1.13.79,8.57,5.33,6.34,6.32Z"/>
    <path class="cls-3" d="M55.18,72.82h0s-5.56-7.75-5.56-7.75l3.02-2.41,5.51,4.19s.39.85.6.7c.21-.16.03-.46.03-.46.85-.39,1.85,1.17,1.85,1.17-.32-2.48-2.63-2.88-2.63-2.88l-4.03-4.34.23-.62s1.47-.16,3.26-3.03c.84-1.36.45-2.39-.2-3.1-.96-1.06-2.57-1.26-3.81-.55-2.11,1.21-1.66,3.66-1.66,3.66l-.23.62s-.23.62-2.09-.08-6.2,3.34-6.2,3.34c0,0-7.45,2.87-6.83,6.91.61,4.03,5.83,8.99,5.83,8.99,0,0,.39.85-.85.39s-5.27.85-5.27.85c0,0-2.91.71-2.86,1.17l-.56.38s2.25,1.55,4.11,2.25.47-1.24.47-1.24l-1.24-.47,7.09.07c-.85,1.64-1.56,3.08-1.97,3.26-.85.39-1.55,2.25-1.55,2.25,0,0,6.21,2.33,7.06,1.94s-2.97-3.36-2.97-3.36l.79-2.12s6.68-8.41,6.29-9.26-7.14-5.51-7.14-5.51l3.73-1.68.69,1.22,2.64,2.4,3.29,3.11,1.25,1.04c.46.38.53.71.83,1.22l1.57,1.02c-.08-2.35-1.35-3.28-2.46-3.29ZM46.25,75.28c-.06.19-.7,1.09-1.04,1.58h0l-.54-2.33,1.59.75Z"/>
    <path class="cls-1" d="M97,59.5c0,22.09-17.91,40-40,40-.61,0-1.2-.02-1.8-.04-1.64-.07-3.25-.24-4.84-.51-4.25-.7-8.29-2.09-11.97-4.04,0,0-.02,0-.03,0-8.3-4.38-14.87-11.58-18.42-20.33-.24-.56-.46-1.13-.66-1.72-1.49-4.17-2.29-8.66-2.29-13.35,0-22.09,17.91-40,40-40,4.12,0,8.11.62,11.84,1.78.02,0,.04,0,.05.02.03,0,.05,0,.08.03,16.25,5.08,28.03,20.25,28.03,38.17Z"/>
  </g>
  <text class="cls-4" transform="translate(107 86.8)"><tspan x="0" y="0">SOUND BORDER</tspan></text>
</svg>